<mxfile host="drawio-plugin" modified="2022-09-25T06:38:45.341Z" agent="5.0 (Windows NT 6.2; Win64; x64) AppleWebKit/537.36 (KHTML, like Gecko) Chrome/98.0.4758.102 Safari/537.36" etag="ZR8e8CQq4pHilLLmEMWZ" version="15.5.4" type="embed"><diagram id="C5RBs43oDa-KdzZeNtuy" name="Page-1"><mxGraphModel dx="1042" dy="782" grid="1" gridSize="10" guides="1" tooltips="1" connect="1" arrows="1" fold="1" page="1" pageScale="1" pageWidth="1600" pageHeight="1200" math="0" shadow="0"><root><mxCell id="WIyWlLk6GJQsqaUBKTNV-0"/><mxCell id="WIyWlLk6GJQsqaUBKTNV-1" parent="WIyWlLk6GJQsqaUBKTNV-0"/><mxCell id="VbjasAzcT3BuFhoReLeh-17" value="" style="endArrow=block;dashed=1;endFill=0;endSize=12;html=1;rounded=0;entryX=0.5;entryY=1;entryDx=0;entryDy=0;exitX=0.5;exitY=0;exitDx=0;exitDy=0;" parent="WIyWlLk6GJQsqaUBKTNV-1" source="VbjasAzcT3BuFhoReLeh-26" target="VbjasAzcT3BuFhoReLeh-36" edge="1"><mxGeometry width="160" relative="1" as="geometry"><mxPoint x="775" y="453" as="sourcePoint"/><mxPoint x="780.0000000000002" y="483" as="targetPoint"/></mxGeometry></mxCell><mxCell id="VbjasAzcT3BuFhoReLeh-26" value="&lt;p style=&quot;margin:0px;margin-top:4px;text-align:center;&quot;&gt;&lt;i&gt;&amp;lt;&amp;lt;Interface&amp;gt;&amp;gt;&lt;/i&gt;&lt;br&gt;&lt;b&gt;ImageWithPreviewModel&lt;/b&gt;&lt;/p&gt;&lt;hr&gt;&lt;p style=&quot;margin:0px;margin-top:4px;text-align:center;&quot;&gt;&amp;lt;T&amp;gt; 预览图的数据&lt;br&gt;&lt;/p&gt;&lt;hr size=&quot;1&quot;&gt;&lt;p style=&quot;margin:0px;margin-left:4px;&quot;&gt;+ previewImage: ImageRpcModel&lt;br&gt;+ previewModel: T&lt;/p&gt;" style="verticalAlign=top;align=left;overflow=fill;fontSize=12;fontFamily=Helvetica;html=1;" parent="WIyWlLk6GJQsqaUBKTNV-1" vertex="1"><mxGeometry x="640" y="533" width="200" height="120" as="geometry"/></mxCell><mxCell id="VbjasAzcT3BuFhoReLeh-27" value="&lt;p style=&quot;margin:0px;margin-top:4px;text-align:center;&quot;&gt;&lt;b&gt;ListItemModel&lt;/b&gt;&lt;br&gt;&lt;/p&gt;&lt;p style=&quot;margin:0px;margin-top:4px;text-align:center;&quot;&gt;&lt;font style=&quot;font-size: 10px;&quot;&gt;ListRpcModel_Item&lt;/font&gt;&lt;br&gt;&lt;/p&gt;&lt;hr size=&quot;1&quot;&gt;&lt;p style=&quot;margin:0px;margin-left:4px;&quot;&gt;+ previewModel: ListRpcModel_Item&lt;/p&gt;&lt;p style=&quot;margin:0px;margin-left:4px;&quot;&gt;&lt;br&gt;&lt;/p&gt;" style="verticalAlign=top;align=left;overflow=fill;fontSize=12;fontFamily=Helvetica;html=1;" parent="WIyWlLk6GJQsqaUBKTNV-1" vertex="1"><mxGeometry x="640" y="743" width="200" height="80" as="geometry"/></mxCell><mxCell id="VbjasAzcT3BuFhoReLeh-28" value="" style="endArrow=block;dashed=1;endFill=0;endSize=12;html=1;rounded=0;fontSize=7;exitX=0.5;exitY=0;exitDx=0;exitDy=0;entryX=0.5;entryY=1;entryDx=0;entryDy=0;" parent="WIyWlLk6GJQsqaUBKTNV-1" source="VbjasAzcT3BuFhoReLeh-27" target="VbjasAzcT3BuFhoReLeh-26" edge="1"><mxGeometry width="160" relative="1" as="geometry"><mxPoint x="670" y="583" as="sourcePoint"/><mxPoint x="650" y="533" as="targetPoint"/><Array as="points"/></mxGeometry></mxCell><mxCell id="VbjasAzcT3BuFhoReLeh-29" value="&lt;p style=&quot;margin:0px;margin-top:4px;text-align:center;&quot;&gt;&lt;i&gt;&amp;lt;&amp;lt;Interface&amp;gt;&amp;gt;&lt;/i&gt;&lt;br&gt;&lt;b&gt;LoadMorePage&lt;/b&gt;&lt;br&gt;&lt;/p&gt;&lt;hr&gt;&lt;div style=&quot;text-align: center;&quot;&gt;&lt;span style=&quot;background-color: initial;&quot;&gt;&amp;lt;T&amp;gt; 每一面数据&lt;/span&gt;&lt;/div&gt;&lt;div style=&quot;text-align: center;&quot;&gt;&lt;span style=&quot;background-color: initial;&quot;&gt;&amp;lt;E&amp;gt;&amp;nbsp; 一面内item数据&lt;/span&gt;&lt;/div&gt;&lt;div style=&quot;text-align: center;&quot;&gt;&lt;span style=&quot;background-color: initial;&quot;&gt;&amp;lt;V: Rx&amp;lt;LoadMoreItem&amp;gt;&amp;gt;&lt;/span&gt;&lt;/div&gt;&lt;hr size=&quot;1&quot;&gt;&lt;p style=&quot;margin:0px;margin-left:4px;&quot;&gt;+ items: List&amp;lt;E&amp;gt;&lt;br&gt;+ models: List&amp;lt;V&amp;gt; 经过处理的数据&lt;/p&gt;&lt;hr&gt;&lt;p style=&quot;text-align: center; margin: 0px 0px 0px 4px;&quot;&gt;Load里获取的每一面的数据&lt;/p&gt;" style="verticalAlign=top;align=left;overflow=fill;fontSize=12;fontFamily=Helvetica;html=1;" parent="WIyWlLk6GJQsqaUBKTNV-1" vertex="1"><mxGeometry x="930" y="343" width="200" height="160" as="geometry"/></mxCell><mxCell id="VbjasAzcT3BuFhoReLeh-32" value="&lt;p style=&quot;margin:0px;margin-top:4px;text-align:center;&quot;&gt;&lt;b&gt;ListPageItem&lt;/b&gt;&lt;br&gt;&lt;/p&gt;&lt;hr&gt;&lt;div style=&quot;text-align: center;&quot;&gt;&lt;span style=&quot;background-color: initial;&quot;&gt;ListRpcModel&lt;/span&gt;&lt;/div&gt;&lt;div style=&quot;text-align: center;&quot;&gt;&lt;span style=&quot;background-color: initial;&quot;&gt;ListRpcModel_Item&lt;/span&gt;&lt;/div&gt;&lt;div style=&quot;text-align: center;&quot;&gt;&lt;span style=&quot;background-color: initial;&quot;&gt;Rx&amp;lt;ListItemModel&amp;gt;&lt;/span&gt;&lt;/div&gt;&lt;hr size=&quot;1&quot;&gt;&lt;p style=&quot;margin:0px;margin-left:4px;&quot;&gt;+ field: Type&lt;/p&gt;&lt;hr size=&quot;1&quot;&gt;&lt;p style=&quot;margin:0px;margin-left:4px;&quot;&gt;+ method(): Type&lt;/p&gt;" style="verticalAlign=top;align=left;overflow=fill;fontSize=12;fontFamily=Helvetica;html=1;" parent="WIyWlLk6GJQsqaUBKTNV-1" vertex="1"><mxGeometry x="1220" y="343" width="200" height="160" as="geometry"/></mxCell><mxCell id="VbjasAzcT3BuFhoReLeh-34" value="" style="endArrow=block;dashed=1;endFill=0;endSize=12;html=1;rounded=0;fontSize=10;entryX=1;entryY=0.5;entryDx=0;entryDy=0;exitX=0;exitY=0.5;exitDx=0;exitDy=0;" parent="WIyWlLk6GJQsqaUBKTNV-1" source="VbjasAzcT3BuFhoReLeh-32" target="VbjasAzcT3BuFhoReLeh-29" edge="1"><mxGeometry width="160" relative="1" as="geometry"><mxPoint x="1190" y="513" as="sourcePoint"/><mxPoint x="1350" y="513" as="targetPoint"/></mxGeometry></mxCell><mxCell id="VbjasAzcT3BuFhoReLeh-35" value="&lt;p style=&quot;margin:0px;margin-top:4px;text-align:center;&quot;&gt;&lt;i&gt;&amp;lt;&amp;lt;Interface&amp;gt;&amp;gt;&lt;/i&gt;&lt;br&gt;&lt;b&gt;LoadMoreLoader&lt;/b&gt;&lt;/p&gt;&lt;hr style=&quot;text-align: center;&quot;&gt;&lt;div style=&quot;text-align: center;&quot;&gt;&amp;lt;T&amp;gt;&lt;/div&gt;&lt;div style=&quot;text-align: center;&quot;&gt;&amp;lt;E&amp;gt;&lt;/div&gt;&lt;div style=&quot;text-align: center;&quot;&gt;&amp;lt;V: Rx&amp;lt;LoadMoreItem&amp;lt;E&amp;gt;&amp;gt;&amp;gt;&lt;/div&gt;&lt;hr size=&quot;1&quot;&gt;&lt;p style=&quot;text-align: center; margin: 0px 0px 0px 4px;&quot;&gt;加载数据逻辑位置&lt;/p&gt;" style="verticalAlign=top;align=left;overflow=fill;fontSize=12;fontFamily=Helvetica;html=1;" parent="WIyWlLk6GJQsqaUBKTNV-1" vertex="1"><mxGeometry x="360" y="358" width="200" height="125" as="geometry"/></mxCell><mxCell id="VbjasAzcT3BuFhoReLeh-36" value="&lt;p style=&quot;margin:0px;margin-top:4px;text-align:center;&quot;&gt;&lt;i&gt;&amp;lt;&amp;lt;Interface&amp;gt;&amp;gt;&lt;/i&gt;&lt;br&gt;&lt;b&gt;LoadMoreItem&lt;/b&gt;&lt;br&gt;&lt;/p&gt;&lt;hr style=&quot;text-align: center;&quot;&gt;&lt;div style=&quot;text-align: center;&quot;&gt;&amp;lt;T&amp;gt;&lt;/div&gt;&lt;div style=&quot;text-align: center;&quot;&gt;&lt;br&gt;&lt;/div&gt;" style="verticalAlign=top;align=left;overflow=fill;fontSize=12;fontFamily=Helvetica;html=1;" parent="WIyWlLk6GJQsqaUBKTNV-1" vertex="1"><mxGeometry x="660" y="383" width="160" height="80" as="geometry"/></mxCell><mxCell id="VbjasAzcT3BuFhoReLeh-38" value="&lt;p style=&quot;margin:0px;margin-top:4px;text-align:center;&quot;&gt;&lt;b&gt;SubListController&lt;/b&gt;&lt;br&gt;&lt;/p&gt;&lt;hr&gt;&lt;div style=&quot;text-align: center;&quot;&gt;&lt;span style=&quot;background-color: initial;&quot;&gt;&amp;lt;ListRpcModel&amp;gt;&lt;/span&gt;&lt;/div&gt;&lt;div style=&quot;text-align: center;&quot;&gt;&lt;span style=&quot;background-color: initial;&quot;&gt;&amp;lt;ListRpcModel_Item&amp;gt;&lt;/span&gt;&lt;/div&gt;&lt;div style=&quot;text-align: center;&quot;&gt;&lt;span style=&quot;background-color: initial;&quot;&gt;&amp;lt;Rx&amp;lt;ListItemModel&amp;gt;&amp;gt;&lt;/span&gt;&lt;/div&gt;&lt;hr size=&quot;1&quot;&gt;&lt;p style=&quot;margin:0px;margin-left:4px;&quot;&gt;+ newWorkLoadPage(): ListPageItem&lt;/p&gt;" style="verticalAlign=top;align=left;overflow=fill;fontSize=12;fontFamily=Helvetica;html=1;" parent="WIyWlLk6GJQsqaUBKTNV-1" vertex="1"><mxGeometry x="360" y="708" width="210" height="150" as="geometry"/></mxCell><mxCell id="VbjasAzcT3BuFhoReLeh-39" value="" style="endArrow=block;dashed=1;endFill=0;endSize=12;html=1;rounded=0;fontSize=7;exitX=0.5;exitY=0;exitDx=0;exitDy=0;entryX=0.5;entryY=1;entryDx=0;entryDy=0;" parent="WIyWlLk6GJQsqaUBKTNV-1" source="VbjasAzcT3BuFhoReLeh-38" target="VbjasAzcT3BuFhoReLeh-35" edge="1"><mxGeometry width="160" relative="1" as="geometry"><mxPoint x="459.56999999999977" y="638" as="sourcePoint"/><mxPoint x="459.56999999999977" y="548" as="targetPoint"/><Array as="points"/></mxGeometry></mxCell><mxCell id="VbjasAzcT3BuFhoReLeh-42" value="" style="endArrow=open;endSize=12;dashed=1;html=1;rounded=0;fontSize=10;entryX=1;entryY=0.5;entryDx=0;entryDy=0;exitX=0;exitY=0.5;exitDx=0;exitDy=0;" parent="WIyWlLk6GJQsqaUBKTNV-1" source="VbjasAzcT3BuFhoReLeh-36" target="VbjasAzcT3BuFhoReLeh-35" edge="1"><mxGeometry width="160" relative="1" as="geometry"><mxPoint x="670" y="503" as="sourcePoint"/><mxPoint x="550" y="503" as="targetPoint"/></mxGeometry></mxCell><mxCell id="VbjasAzcT3BuFhoReLeh-44" value="&lt;p style=&quot;margin:0px;margin-top:4px;text-align:center;&quot;&gt;&lt;i&gt;&amp;lt;&amp;lt;Interface&amp;gt;&amp;gt;&lt;/i&gt;&lt;br&gt;&lt;b&gt;ReaderInfo&lt;/b&gt;&lt;/p&gt;&lt;hr&gt;&lt;div style=&quot;text-align: center;&quot;&gt;&amp;lt;T&amp;gt;&lt;/div&gt;&lt;div style=&quot;text-align: center;&quot;&gt;&amp;lt;V: ImageWithPreviewModel&amp;lt;T&amp;gt;?&amp;gt;&lt;/div&gt;&lt;hr size=&quot;1&quot;&gt;&lt;p style=&quot;margin:0px;margin-left:4px;&quot;&gt;+ items: Iterable&amp;lt;V&amp;gt;&lt;br&gt;&lt;br&gt;&lt;/p&gt;" style="verticalAlign=top;align=left;overflow=fill;fontSize=12;fontFamily=Helvetica;html=1;" parent="WIyWlLk6GJQsqaUBKTNV-1" vertex="1"><mxGeometry x="40" y="358" width="260" height="112" as="geometry"/></mxCell><mxCell id="VbjasAzcT3BuFhoReLeh-45" value="" style="endArrow=block;dashed=1;endFill=0;endSize=12;html=1;rounded=0;fontSize=7;exitX=-0.008;exitY=0.555;exitDx=0;exitDy=0;exitPerimeter=0;entryX=0.466;entryY=1.012;entryDx=0;entryDy=0;entryPerimeter=0;" parent="WIyWlLk6GJQsqaUBKTNV-1" source="VbjasAzcT3BuFhoReLeh-38" target="VbjasAzcT3BuFhoReLeh-44" edge="1"><mxGeometry width="160" relative="1" as="geometry"><mxPoint x="160" y="805" as="sourcePoint"/><mxPoint x="160" y="570" as="targetPoint"/><Array as="points"><mxPoint x="160" y="790"/></Array></mxGeometry></mxCell><mxCell id="VbjasAzcT3BuFhoReLeh-47" value="" style="endArrow=open;endSize=12;dashed=1;html=1;rounded=0;fontSize=10;entryX=-0.017;entryY=0.569;entryDx=0;entryDy=0;exitX=1.013;exitY=0.542;exitDx=0;exitDy=0;exitPerimeter=0;entryPerimeter=0;" parent="WIyWlLk6GJQsqaUBKTNV-1" source="VbjasAzcT3BuFhoReLeh-38" target="VbjasAzcT3BuFhoReLeh-27" edge="1"><mxGeometry width="160" relative="1" as="geometry"><mxPoint x="660" y="910" as="sourcePoint"/><mxPoint x="580" y="910" as="targetPoint"/></mxGeometry></mxCell><mxCell id="VbjasAzcT3BuFhoReLeh-49" value="V: LoadMoreItem" style="endArrow=open;endSize=12;dashed=1;html=1;rounded=0;fontSize=10;entryX=1;entryY=0.5;entryDx=0;entryDy=0;exitX=0;exitY=0.5;exitDx=0;exitDy=0;" parent="WIyWlLk6GJQsqaUBKTNV-1" source="VbjasAzcT3BuFhoReLeh-29" target="VbjasAzcT3BuFhoReLeh-36" edge="1"><mxGeometry width="160" relative="1" as="geometry"><mxPoint x="970.0000000000002" y="620" as="sourcePoint"/><mxPoint x="1090" y="620" as="targetPoint"/></mxGeometry></mxCell><mxCell id="VbjasAzcT3BuFhoReLeh-50" value="" style="endArrow=open;endSize=12;dashed=1;html=1;rounded=0;fontSize=10;entryX=-0.012;entryY=0.564;entryDx=0;entryDy=0;exitX=0.75;exitY=1;exitDx=0;exitDy=0;entryPerimeter=0;" parent="WIyWlLk6GJQsqaUBKTNV-1" source="VbjasAzcT3BuFhoReLeh-44" target="VbjasAzcT3BuFhoReLeh-26" edge="1"><mxGeometry width="160" relative="1" as="geometry"><mxPoint x="647.5999999999999" y="634.6500000000003" as="sourcePoint"/><mxPoint x="250.98000000000002" y="564.9980000000003" as="targetPoint"/><Array as="points"><mxPoint x="235" y="601"/></Array></mxGeometry></mxCell><mxCell id="VbjasAzcT3BuFhoReLeh-51" value="" style="endArrow=open;endSize=12;dashed=1;html=1;rounded=0;fontSize=10;exitX=1.009;exitY=0.885;exitDx=0;exitDy=0;exitPerimeter=0;" parent="WIyWlLk6GJQsqaUBKTNV-1" source="VbjasAzcT3BuFhoReLeh-38" target="VbjasAzcT3BuFhoReLeh-32" edge="1"><mxGeometry width="160" relative="1" as="geometry"><mxPoint x="630.0000000000001" y="858.7799999999997" as="sourcePoint"/><mxPoint x="703.9999999999999" y="857.9999999999998" as="targetPoint"/><Array as="points"><mxPoint x="1320" y="830"/></Array></mxGeometry></mxCell></root></mxGraphModel></diagram></mxfile>